<svg width="85" height="30" viewBox="0 0 85 30" fill="none" xmlns="http://www.w3.org/2000/svg">
<path d="M55.7755 1H29.3338C29.2554 0.999999 29.1796 1.02756 29.1195 1.07787C29.0594 1.12817 29.019 1.198 29.0052 1.27514C28.9914 1.35227 29.0052 1.43179 29.0442 1.49976C29.0832 1.56774 29.1448 1.61984 29.2183 1.64694L53.1344 9.47706C53.1618 9.48601 53.1914 9.48507 53.2181 9.47439C53.2449 9.46372 53.267 9.44399 53.2806 9.41866L56.8493 2.79879C56.9495 2.61296 56.9997 2.4043 56.9951 2.19323C56.9905 1.98216 56.9312 1.77591 56.823 1.59462C56.7148 1.41335 56.5613 1.26325 56.3778 1.15902C56.1942 1.0548 55.9866 1 55.7755 1Z" fill="#8491A0"/>
<path d="M29.0059 28.6787C29.0059 28.7506 29.0299 28.8204 29.074 28.8772C29.1182 28.9339 29.1801 28.9743 29.2498 28.9919C29.3195 29.0095 29.3931 29.0034 29.459 28.9744C29.5248 28.9455 29.5791 28.8954 29.6133 28.8321L34.2136 20.31C34.3181 20.1164 34.4731 19.9546 34.6621 19.8419C34.851 19.7292 35.067 19.6696 35.2871 19.6696H47.024C47.2441 19.6696 47.4602 19.6101 47.6492 19.4972C47.8383 19.3844 47.9932 19.2225 48.0977 19.0287L51.6047 12.526C51.6126 12.5112 51.6166 12.4946 51.6163 12.4778C51.6159 12.461 51.6112 12.4446 51.6026 12.4301C51.594 12.4157 51.5818 12.4038 51.5672 12.3955C51.5526 12.3872 51.536 12.3828 51.5192 12.3828H30.2257C29.9022 12.3828 29.5919 12.5114 29.3632 12.7401C29.1344 12.9689 29.0059 13.2792 29.0059 13.6027V28.6787Z" fill="#8491A0"/>
</svg>
